<svg width="69" height="54" viewBox="0 0 69 54" fill="none" xmlns="http://www.w3.org/2000/svg">
<path fill-rule="evenodd" clip-rule="evenodd" d="M44.4995 2.18995C47.4395 4.76995 52.0495 10.34 53.9095 13.23C54.6695 14.41 54.8295 14.94 54.9495 16.59C55.0995 18.87 55.1895 22.75 55.1895 26.9799C55.1895 31.1999 55.0995 35.0799 54.9495 37.3699C54.8295 39.0499 54.6795 39.5599 53.9095 40.7599C52.0295 43.66 47.4195 49.22 44.4995 51.79C43.5695 52.61 43.2395 52.86 41.6195 53.16C41.2995 53.22 40.9595 53.27 40.5995 53.32C38.8895 53.5499 36.7495 53.66 34.5995 53.66C32.4595 53.66 30.3095 53.5499 28.5995 53.32C28.2295 53.27 27.8995 53.22 27.5795 53.16C25.9595 52.86 25.6295 52.61 24.6995 51.79C21.7795 49.22 17.1695 43.66 15.2995 40.77C14.5395 39.59 14.3795 39.0499 14.2595 37.38C13.9395 32.6199 13.9395 21.35 14.2595 16.6C14.3795 14.93 14.5395 14.4 15.2995 13.22C17.1595 10.34 21.7695 4.76995 24.6995 2.18995C25.6395 1.35995 25.9795 1.10995 27.5795 0.819951C29.0695 0.549951 31.1195 0.379951 33.3495 0.339951C34.1695 0.319951 35.0195 0.319951 35.8495 0.339951C38.0795 0.379951 40.1295 0.549951 41.6195 0.819951C43.2195 1.11995 43.5595 1.36995 44.4995 2.18995ZM54.1895 27C54.1895 22.7999 54.0995 18.94 53.9495 16.68C53.9495 16.6468 53.9427 16.6274 53.9346 16.6047C53.933 16.6 53.9312 16.5951 53.9295 16.59L45.2795 21.11C45.2995 21.26 45.3195 21.4299 45.3295 21.6299C45.3995 22.8099 45.4495 24.82 45.4495 27.01C45.4495 29.19 45.4095 31.2 45.3295 32.38C45.3195 32.62 45.2995 32.82 45.2695 32.99L53.6995 39.0099C53.8395 38.5799 53.8995 38.11 53.9495 37.32C54.0995 35.06 54.1895 31.2 54.1895 27ZM37.7948 39.7993C37.8986 39.7835 37.996 39.7687 38.0895 39.75C38.7495 39.63 38.8095 39.58 39.1895 39.24C40.6595 37.95 42.9695 35.16 43.9095 33.7099C44.2195 33.2199 44.2795 33.09 44.3295 32.32C44.3995 31.15 44.4495 29.17 44.4495 27.01C44.4495 24.84 44.4095 22.86 44.3295 21.7C44.2695 20.93 44.2195 20.7999 43.9095 20.32C42.9795 18.86 40.6695 16.07 39.1995 14.78C38.7995 14.42 38.7395 14.37 38.0795 14.25C37.3595 14.11 36.3395 14.03 35.2295 14.01C35.0195 14 34.8095 14 34.5995 14H33.9695C32.8595 14.02 31.8495 14.11 31.1195 14.24C30.4695 14.36 30.3995 14.42 29.9995 14.77C28.5395 16.06 26.2195 18.8499 25.2895 20.2999C24.9795 20.7799 24.9195 20.91 24.8695 21.68C24.7095 24.11 24.7095 29.8699 24.8695 32.2999C24.9295 33.07 24.9895 33.2199 25.2895 33.6899C26.2195 35.1399 28.5395 37.93 29.9995 39.22C30.3995 39.58 30.4595 39.63 31.1195 39.75C31.2695 39.7799 31.4295 39.81 31.6095 39.83C33.2895 40.05 35.9195 40.05 37.5995 39.83C37.6673 39.8187 37.7322 39.8088 37.7948 39.7993ZM15.2595 16.68C14.9395 21.4 14.9395 32.59 15.2595 37.32C15.2595 37.3582 15.2654 37.3848 15.2726 37.4176C15.2748 37.4276 15.2772 37.4382 15.2795 37.45L23.9295 32.93C23.9066 32.8075 23.8953 32.6734 23.8823 32.5185C23.8784 32.471 23.8742 32.4216 23.8695 32.3699C23.6995 29.91 23.6995 24.08 23.8695 21.62C23.8895 21.4 23.9095 21.2099 23.9295 21.0499L15.4995 15.03C15.3695 15.44 15.3095 15.91 15.2595 16.68ZM53.8295 15.51C53.7195 14.87 53.5195 14.47 53.0695 13.77C51.3395 11.08 47.1895 6.03995 44.3095 3.36995L38.9195 13.42C39.3095 13.55 39.5195 13.72 39.8695 14.02C41.3995 15.36 43.7995 18.26 44.7695 19.76C44.8595 19.9 44.9295 20.0199 44.9895 20.1299L53.8295 15.51ZM33.3695 1.33995C31.1895 1.37995 29.1995 1.54995 27.7595 1.80995C26.5495 2.02995 26.2595 2.17995 25.6595 2.68995L31.2995 13.2C32.0395 13.09 32.9495 13.02 33.9495 13C34.3795 12.99 34.8195 12.99 35.2495 13C36.2495 13.02 37.1595 13.09 37.8995 13.2L43.5395 2.67995C42.9595 2.18995 42.6495 2.02995 41.4395 1.80995C39.9995 1.53995 38.0095 1.37995 35.8295 1.33995C35.4195 1.32995 35.0095 1.31995 34.5995 1.31995C34.1895 1.31995 33.7795 1.32995 33.3695 1.33995ZM30.2895 13.42L24.8995 3.36995C22.0195 6.03995 17.8695 11.09 16.1295 13.77C16.0495 13.89 15.9795 14 15.9195 14.1L24.2595 20.0599C24.2795 20.0266 24.2984 19.9944 24.3173 19.9622C24.3551 19.8977 24.3929 19.8333 24.4395 19.76C25.4095 18.26 27.8095 15.36 29.3395 14.02C29.6895 13.72 29.8995 13.55 30.2895 13.42ZM15.3895 38.5099C15.4995 39.1499 15.6895 39.54 16.1395 40.2299C17.8795 42.93 22.0495 47.9899 24.9195 50.6399L30.2795 40.57C29.9095 40.45 29.6895 40.29 29.3295 39.97C27.8095 38.63 25.4095 35.7299 24.4395 34.2299C24.3595 34.11 24.2995 34 24.2395 33.8899L15.3895 38.5099ZM41.2602 52.2121C41.3242 52.2011 41.3873 52.1903 41.4495 52.18C42.6695 51.9599 42.9595 51.81 43.5395 51.31L37.8995 40.79L37.7195 40.82C36.8295 40.9399 35.7195 41 34.5995 41C33.4895 41 32.3695 40.9399 31.4695 40.82C31.4095 40.81 31.3595 40.7999 31.2995 40.79L25.6895 51.33C26.2595 51.81 26.5695 51.9599 27.7695 52.18C27.8318 52.1903 27.8948 52.2011 27.9589 52.2121C28.2036 52.254 28.4621 52.2982 28.7395 52.33C32.0295 52.77 37.1895 52.77 40.4795 52.33C40.7569 52.2982 41.0155 52.254 41.2602 52.2121ZM38.9195 40.57L44.3095 50.6199C47.1795 47.9599 51.3295 42.9199 53.0795 40.2299C53.1494 40.1201 53.2093 40.0203 53.2693 39.9204L53.2695 39.9199L44.9295 33.9599C44.8924 34.0267 44.8553 34.088 44.8141 34.156C44.7998 34.1797 44.785 34.2042 44.7695 34.2299C43.7895 35.7399 41.3895 38.63 39.8695 39.97C39.5095 40.28 39.2795 40.45 38.9195 40.57ZM2.80012 16.9C1.46012 16.9 0.370117 17.99 0.370117 19.33C0.370117 20.67 1.46012 21.76 2.80012 21.76C4.14012 21.76 5.23012 20.67 5.23012 19.33C5.23012 17.99 4.14012 16.9 2.80012 16.9ZM2.80012 20.77C2.01012 20.77 1.37012 20.13 1.37012 19.34C1.37012 18.55 2.01012 17.91 2.80012 17.91C3.59012 17.91 4.23012 18.55 4.23012 19.34C4.23012 20.13 3.59012 20.77 2.80012 20.77ZM66.0297 32.02C64.5997 32.02 63.4297 33.19 63.4297 34.62C63.4297 36.05 64.5997 37.22 66.0297 37.22C67.4597 37.22 68.6297 36.05 68.6297 34.62C68.6297 33.19 67.4697 32.02 66.0297 32.02ZM66.0297 36.22C65.1497 36.22 64.4297 35.5 64.4297 34.62C64.4297 33.74 65.1497 33.02 66.0297 33.02C66.9097 33.02 67.6297 33.74 67.6297 34.62C67.6297 35.5 66.9097 36.22 66.0297 36.22Z" fill="white"/>
</svg>
